<?xml version="1.0" standalone="no"?><!DOCTYPE svg PUBLIC "-//W3C//DTD SVG 1.1//EN" "http://www.w3.org/Graphics/SVG/1.1/DTD/svg11.dtd"><svg t="1580886546527" class="icon" viewBox="0 0 1024 1024" version="1.1" xmlns="http://www.w3.org/2000/svg" p-id="2065" xmlns:xlink="http://www.w3.org/1999/xlink" width="200" height="200"><defs><style type="text/css"></style></defs><path d="M833.92 496.64 833.92 357.056C833.92 195.264 706.496 64 544.64 64S251.584 195.264 251.584 357.056L251.584 496.64 192 496.64 192 960l701.504 0L893.504 496.64 833.92 496.64zM585.216 748.032l0 129.344L500.288 877.376l0-129.344c-28.992-15.296-48.832-45.696-48.832-80.704C451.52 616.896 492.288 576 542.72 576c50.368 0 91.264 40.896 91.264 91.328C633.984 702.336 614.208 732.672 585.216 748.032zM750.272 496.64 335.232 496.64 335.232 357.056c0-115.584 93.76-209.344 209.344-209.344s205.632 93.76 205.632 209.344L750.208 496.64z" p-id="2066"></path></svg>