<?xml version="1.0" standalone="no"?><!DOCTYPE svg PUBLIC "-//W3C//DTD SVG 1.1//EN" "http://www.w3.org/Graphics/SVG/1.1/DTD/svg11.dtd"><svg t="1580895624326" class="icon" viewBox="0 0 1024 1024" version="1.1" xmlns="http://www.w3.org/2000/svg" p-id="2313" xmlns:xlink="http://www.w3.org/1999/xlink" width="200" height="200"><defs><style type="text/css"></style></defs><path d="M511.984 315.896c-139.048 0-252.168 113.28-252.168 252.52 0 139.232 113.12 252.504 252.168 252.504 139.064 0 252.2-113.272 252.2-252.504 0-139.24-113.136-252.52-252.2-252.52z m0 418.296c-91.88 0-166.632-74.552-166.632-166.192 0-91.648 74.752-166.2 166.632-166.2 91.904 0 166.672 74.552 166.672 166.2 0 91.64-74.768 166.192-166.672 166.192z" fill="#020202" p-id="2314"></path><path d="M827.752 240H734.768c-11.544-64-67.512-112-134.44-112H425.144c-66.92 0-122.888 48-134.44 112H196.256C123.336 240 64 299.096 64 370.864v395.104C64 837.736 123.336 896 196.256 896h631.496c72.92 0 132.248-58.264 132.248-130.032V370.864C960 299.096 900.672 240 827.752 240zM912 765.968c0 45.296-37.8 82.032-84.248 82.032H196.256C149.8 848 112 811.264 112 765.968V370.864C112 325.56 149.8 288 196.256 288h140.176l0.088-23.712C336.696 215.496 376.448 176 425.144 176h175.184c48.688 0 88.448 39.496 88.616 88.288L689.032 288h138.72C874.2 288 912 325.56 912 370.864v395.104z" fill="#020202" p-id="2315"></path></svg>